# xmcd
#
# Track frame offsets:
#	150
#	20052
#	40199
#	63782
#	78737
#	99862
#	122340
#	138328
#	158491
#	182977
#	200467
#	218430
#	241782
#	262501
#	280243
#	301859
#
# Disc length: 4264 seconds
#
# Revision: 0
# Processed by: cddbd v1.5.2PL0 Copyright (c) Steve Scherf et al.
# Submitted via: EasyCDDAExtractor 12.1.0.1
#
DISCID=c410a610
DTITLE=Various Artist - 박정철 송윤아의 Love 2 CD3
DYEAR=1900
DGENRE=pop
TTITLE0=봄여름가을겨울 - Bravo My Life
TTITLE1=티  - 시간이 흐른뒤
TTITLE2=토이 - 내가 너의 곁에 잠시 살았다는 걸
TTITLE3=조동진 - 어떤 날
TTITLE4=꼬마자동차 - 사랑의 시
TTITLE5=김현철 - 봄이 와
TTITLE6=임현정 - 고마워요
TTITLE7=박정운 - 먼훗날에
TTITLE8=들국화 - 사랑일 뿐이야
TTITLE9=어떤날 - 너무 아쉬워 하지마
TTITLE10=따로 또 같이 - 나는 떠나가야 하리
TTITLE11=최성원 - 제주도의 푸른밤
TTITLE12=에코 - 행복한 나를
TTITLE13=허쉬 - 애수
TTITLE14=김장훈 - 사노라면
TTITLE15=야샤 - 눈싸움하는 아이들
EXTD=
EXTT0=
EXTT1=
EXTT2=
EXTT3=
EXTT4=
EXTT5=
EXTT6=
EXTT7=
EXTT8=
EXTT9=
EXTT10=
EXTT11=
EXTT12=
EXTT13=
EXTT14=
EXTT15=
PLAYORDER=
